HIERARCHY
ROOT hip
{
	OFFSET 0.000000 0.000000 0.000000
	CHANNELS 6 Xposition Yposition Zposition Xrotation Zrotation Yrotation 
	JOINT abdomen
	{
		OFFSET 0.000000 3.422050 0.000000
		CHANNELS 3 Xrotation Zrotation Yrotation 
		JOINT chest
		{
			OFFSET 0.000000 8.486693 -0.684411
			CHANNELS 3 Xrotation Zrotation Yrotation 
			JOINT neck
			{
				OFFSET 0.000000 10.266162 -0.273764
				CHANNELS 3 Xrotation Zrotation Yrotation 
				JOINT head
				{
					OFFSET 0.000000 3.148285 0.000000
					CHANNELS 3 Xrotation Zrotation Yrotation 
					End Site
					{
						OFFSET 0.000000 3.148289 0.000000
					}
				}
			}
			JOINT lCollar
			{
				OFFSET 3.422053 6.707223 -0.821293
				CHANNELS 3 Yrotation Zrotation Xrotation 
				JOINT lShldr
				{
					OFFSET 3.285171 0.000000 0.000000
					CHANNELS 3 Zrotation Yrotation Xrotation 
					JOINT lForeArm
					{
						OFFSET 10.129278 0.000000 0.000000
						CHANNELS 3 Yrotation Zrotation Xrotation 
						JOINT lHand
						{
							OFFSET 8.486692 0.000000 0.000000
							CHANNELS 3 Zrotation Yrotation Xrotation 
							End Site
							{
								OFFSET 4.106464 0.000000 0.000000
							}
						}
					}
				}
			}
			JOINT rCollar
			{
				OFFSET -3.558935 6.707223 -0.821293
				CHANNELS 3 Yrotation Zrotation Xrotation 
				JOINT rShldr
				{
					OFFSET -3.148289 0.000000 0.000000
					CHANNELS 3 Zrotation Yrotation Xrotation 
					JOINT rForeArm
					{
						OFFSET -10.266159 0.000000 0.000000
						CHANNELS 3 Yrotation Zrotation Xrotation 
						JOINT rHand
						{
							OFFSET -8.349810 0.000000 0.000000
							CHANNELS 3 Zrotation Yrotation Xrotation 
							End Site
							{
								OFFSET -4.106464 0.000000 0.000000
							}
						}
					}
				}
			}
		}
	}
	JOINT lThigh
	{
		OFFSET 5.338403 -1.642589 1.368821
		CHANNELS 3 Xrotation Zrotation Yrotation 
		JOINT lShin
		{
			OFFSET -2.053232 -20.121670 0.000000
			CHANNELS 3 Xrotation Zrotation Yrotation 
			JOINT lFoot
			{
				OFFSET 0.000000 -19.300380 -1.231939
				CHANNELS 3 Xrotation Yrotation Zrotation 
				End Site
				{
					OFFSET 0.000000 -2.463878 4.653993
				}
			}
		}
	}
	JOINT rThigh
	{
		OFFSET -5.338403 -1.642589 1.368821
		CHANNELS 3 Xrotation Zrotation Yrotation 
		JOINT rShin
		{
			OFFSET 2.053232 -20.121670 0.000000
			CHANNELS 3 Xrotation Zrotation Yrotation 
			JOINT rFoot
			{
				OFFSET 0.000000 -19.300380 -1.231939
				CHANNELS 3 Xrotation Yrotation Zrotation 
				End Site
				{
					OFFSET 0.000000 -2.463878 4.653993
				}
			}
		}
	}
}
MOTION
Frames: 13
Frame Time: 0.033264
0.000000 43.528500 0.000000 0.000000 0.000000 0.000000 0.000000 0.000000 0.000000 0.000000 0.000000 0.000000 0.000000 0.000000 0.000000 0.000000 0.000000 0.000000 0.000000 0.000000 0.000000 0.000000 0.000000 0.000000 0.000000 0.000000 0.000000 0.000000 0.000000 0.000000 0.000000 0.000000 0.000000 0.000000 0.000000 0.000000 0.000000 0.000000 0.000000 0.000000 0.000000 0.000000 0.000000 0.000000 0.000000 0.000000 0.000000 0.000000 0.000000 0.000000 0.000000 0.000000 0.000000 0.000000 0.000000 0.000000 0.000000 0.000000 0.000000 0.000000 
19.995884 18.468296 11.086800 90.000671 0.013666 -132.006592 12.060170 20.619831 8.209951 10.639852 13.303134 15.774822 -0.787456 27.167532 -7.940506 -1.744075 0.843866 -29.285133 38.638729 8.885790 -5.857403 -15.516949 -27.017391 36.422359 -77.410110 43.992023 30.827827 -10.231864 1.217619 8.570428 21.975302 28.945530 -3.964781 32.794525 -17.873974 -56.374428 1.237373 -0.284450 -15.302978 30.729017 -3.836412 -3.001370 -124.523354 34.611496 -15.539671 68.812057 13.705503 -0.774125 16.473324 4.341975 -21.829693 -140.001328 21.868294 -2.681422 79.807800 41.910477 -2.418868 16.915192 10.379280 1.099124 
19.995884 18.468296 11.222969 90.000671 0.013666 -132.006592 12.060118 20.897507 8.209969 10.910277 13.913096 15.748957 -0.772026 26.724409 -7.923528 -1.693153 0.642062 -28.981800 38.119034 7.991682 -4.743547 -15.516949 -27.017391 36.422359 -76.733849 43.972275 30.354986 -9.627822 1.270380 8.831100 21.872681 28.375124 -3.710709 32.794525 -17.873976 -56.374432 1.237373 -0.284450 -15.302978 30.549807 -3.741228 -2.973105 -124.307762 34.927856 -15.133753 68.812057 13.705503 -0.774125 16.205086 4.132699 -21.547707 -140.236374 22.402058 -2.207336 79.807800 41.910477 -2.418868 16.531967 9.949800 1.786663 
19.995884 18.468296 11.359138 90.000671 0.013666 -132.006592 12.060064 21.175205 8.209985 11.181298 14.523510 15.725988 -0.756784 26.280773 -7.906727 -1.643264 0.439835 -28.678431 37.616734 7.085393 -3.637314 -15.516951 -27.017393 36.422363 -76.057884 43.948509 29.882536 -9.023219 1.320417 9.092456 21.773417 27.804075 -3.459025 32.794525 -17.873974 -56.374432 1.237373 -0.284450 -15.302978 30.370647 -3.645949 -2.945140 -124.088554 35.243050 -14.724705 68.812057 13.705503 -0.774125 15.937884 3.922062 -21.266714 -140.467728 22.938038 -1.733403 79.807808 41.910477 -2.418869 16.154171 9.515458 2.470980 
19.995884 18.468296 11.495308 90.000671 0.013664 -132.006592 12.060006 21.452921 8.209999 11.452963 15.134315 15.705936 -0.741728 25.836643 -7.890103 -1.594412 0.237194 -28.375011 37.131943 6.167564 -2.538623 -15.516951 -27.017393 36.422363 -75.382332 43.920715 29.410593 -8.418105 1.367713 9.354453 21.677448 27.232410 -3.209658 32.794525 -17.873976 -56.374432 1.237373 -0.284450 -15.302978 30.191544 -3.550581 -2.917474 -123.865677 35.557003 -14.312482 68.812057 13.705503 -0.774126 15.671738 3.710081 -20.986723 -140.695328 23.476137 -1.259597 79.807800 41.910477 -2.418869 15.781847 9.076379 3.152046 
19.995884 18.468296 11.631477 90.000671 0.013666 -132.006592 12.059953 21.730661 8.210014 11.725316 15.745453 15.688824 -0.726855 25.392036 -7.873652 -1.546599 0.034150 -28.071545 36.664780 5.238853 -1.447371 -15.516947 -27.017387 36.422359 -74.707321 43.888920 28.939272 -7.812529 1.412258 9.617041 21.584724 26.660194 -2.962540 32.794521 -17.873972 -56.374420 1.237373 -0.284450 -15.302976 30.012501 -3.455122 -2.890110 -123.639061 35.869694 -13.897049 68.812057 13.705503 -0.774125 15.406650 3.496772 -20.707739 -140.919128 24.016270 -0.785889 79.807800 41.910473 -2.418864 15.415032 8.632682 3.829837 
19.995884 18.468296 11.767647 90.000671 0.013668 -132.006592 12.059900 22.008423 8.210031 11.998411 16.356874 15.674684 -0.712161 24.946964 -7.857375 -1.499829 -0.169290 -27.768038 36.215336 4.299927 -0.363437 -15.516949 -27.017389 36.422359 -74.032944 43.853119 28.468679 -7.206545 1.454038 9.880176 21.495182 26.087460 -2.717605 32.794525 -17.873974 -56.374428 1.237373 -0.284450 -15.302976 29.833509 -3.359576 -2.863046 -123.408722 36.181087 -13.478368 68.812057 13.705503 -0.774125 15.142627 3.282150 -20.429770 -141.139069 24.558342 -0.312246 79.807793 41.910473 -2.418870 15.053773 8.184495 4.504332 
19.995884 18.468296 11.903816 90.000671 0.013666 -132.006592 12.059845 22.286192 8.210046 12.272296 16.968519 15.663542 -0.697644 24.501427 -7.841260 -1.454105 -0.373115 -27.464478 35.783710 3.351461 0.713322 -15.516949 -27.017391 36.422359 -73.359337 43.813332 27.998949 -6.600207 1.493043 10.143815 21.408764 25.514254 -2.474788 32.794525 -17.873974 -56.374428 1.237373 -0.284450 -15.302978 29.654589 -3.263944 -2.836284 -123.174622 36.491158 -13.056412 68.812057 13.705503 -0.774125 14.879675 3.066229 -20.152821 -141.355103 25.102278 0.161369 79.807800 41.910477 -2.418868 14.698106 7.731945 5.175514 
19.995884 18.468296 12.039986 90.000671 0.013666 -132.006592 12.059791 22.563972 8.210061 12.547028 17.580343 15.655433 -0.683301 24.055450 -7.825311 -1.409431 -0.577317 -27.160866 35.369942 2.394138 1.783067 -15.516949 -27.017391 36.422359 -72.686607 43.769562 27.530165 -5.993566 1.529263 10.407906 21.325417 24.940628 -2.234025 32.794525 -17.873974 -56.374428 1.237373 -0.284450 -15.302978 29.475716 -3.168227 -2.809823 -122.936714 36.799858 -12.631138 68.812057 13.705503 -0.774125 14.617801 2.849025 -19.876896 -141.567169 25.647974 0.634986 79.807800 41.910477 -2.418865 14.348066 7.275160 5.843367 
19.995884 18.468296 12.176155 90.000671 0.013666 -132.006592 12.059737 22.841759 8.210075 12.822653 18.192272 15.650381 -0.669130 23.609041 -7.809524 -1.365811 -0.781885 -26.857208 34.974098 1.428647 2.845978 -15.516949 -27.017391 36.422359 -72.014839 43.721802 27.062443 -5.386673 1.562690 10.672405 21.245096 24.366632 -1.995256 32.794525 -17.873974 -56.374428 1.237373 -0.284450 -15.302979 29.296906 -3.072427 -2.783662 -122.694939 37.107124 -12.202503 68.812057 13.705503 -0.774125 14.357010 2.630555 -19.602009 -141.775253 26.195339 1.108641 79.807800 41.910477 -2.418871 14.003682 6.814270 6.507881 
19.995884 18.468296 12.312325 90.000671 0.013666 -132.006592 12.059680 23.119545 8.210088 13.099228 18.804266 15.648423 -0.655127 23.162220 -7.793897 -1.323245 -0.986811 -26.553497 34.596218 0.455680 3.902249 -15.516951 -27.017393 36.422363 -71.344185 43.670105 26.595909 -4.779586 1.593316 10.937270 21.167732 23.792294 -1.758418 32.794525 -17.873976 -56.374432 1.237373 -0.284450 -15.302978 29.118149 -2.976544 -2.757804 -122.449310 37.412964 -11.770483 68.812057 13.705503 -0.774125 14.097311 2.410834 -19.328156 -141.979263 26.744293 1.582376 79.807800 41.910477 -2.418869 13.664982 6.349406 7.169049 
19.995884 18.468296 12.448494 90.000664 0.013668 -132.006592 12.059625 23.397333 8.210101 13.376802 19.416254 15.649584 -0.641290 22.715000 -7.778427 -1.281740 -1.192084 -26.249731 34.236336 -0.524066 4.952093 -15.516947 -27.017387 36.422359 -70.674706 43.614449 26.130646 -4.172352 1.621135 11.202443 21.093300 23.217678 -1.523456 32.794525 -17.873974 -56.374428 1.237373 -0.284450 -15.302978 28.939457 -2.880582 -2.732248 -122.199738 37.717297 -11.335033 68.812057 13.705503 -0.774125 13.838699 2.189878 -19.055338 -142.179169 27.294744 2.056234 79.807800 41.910473 -2.418866 13.331997 5.880701 7.826867 
19.995884 18.468296 12.584663 90.000671 0.013664 -132.006592 12.059571 23.675119 8.210115 13.655437 20.028189 15.653910 -0.627616 22.267382 -7.763109 -1.241297 -1.397695 -25.945913 33.894470 -1.509893 5.995731 -15.516949 -27.017391 36.422356 -70.006577 43.554886 25.666794 -3.565028 1.646140 11.467883 21.021734 22.642817 -1.290312 32.794521 -17.873970 -56.374428 1.237373 -0.284450 -15.302978 28.760824 -2.784542 -2.706994 -121.946228 38.020123 -10.896125 68.812057 13.705503 -0.774125 13.581192 1.967702 -18.783575 -142.374893 27.846582 2.530253 79.807793 41.910469 -2.418866 13.004742 5.408287 8.481331 
